# xmcd
# 
# Track frame offsets:
#     150
#     14943
#     29104
#     41892
#     54663
#     68601
#     80164
#     96116
#     109006
#     121731
#     135484
#     151385
#     166546
# 
# Disc length: 2448
# 
# Revision: 0
# Processed by: cddbd v1.5.2PL0 Copyright (c) Steve Scherf et al.
# Submitted via: fre:ac v1.0.31
# 
DISCID=ad098e0d
DTITLE=Davi Henn - A Banda de um Homem Só - Country Blues Vol-2
DYEAR=2017
DGENRE=Blues
TTITLE0=Ramblin on My Mind - Robert Jhonson
TTITLE1=32X20 Blues - Robert Jhonson
TTITLE2=Come on in my Kitchen - Robert Jhonson
TTITLE3=From Four Until Late - Robert Jhonson
TTITLE4=Travelin RiverSide Blues - Robert Jhonson
TTITLE5=Love In Vain - Robert Jhonson
TTITLE6=Kind Hearted Woman - Robert Jhonson
TTITLE7=Stop Breakin Down - Robert Jhonson
TTITLE8=Walking Blues - Robert Jhonson
TTITLE9=Me and the Devil - Robert Jhonson
TTITLE10=Drunken Hearted Man - Robert Jhonson
TTITLE11=Stones in My Passway - Robert Jhonson
TTITLE12=I Believe I'll Dust my Broom - Robert Jhonson
EXTD=
EXTT0=
EXTT1=
EXTT2=
EXTT3=
EXTT4=
EXTT5=
EXTT6=
EXTT7=
EXTT8=
EXTT9=
EXTT10=
EXTT11=
EXTT12=
PLAYORDER=
